# xmcd
#
# Track frame offsets:
#  150
#  26845
#  46123
#  72005
#  85705
#  101640
#  122481
#  136027
#  152033
#  173672
#  193694
#
# Disc length: 2740 seconds
#
# Revision: 0
# Processed by: cddbd v1.5.2PL0 Copyright (c) Steve Scherf et al.
# Submitted via: AltoMP3_Maker 3.0
#
DISCID=820ab20b
DTITLE=The Flying Feather Band - Lost In Nashville
DYEAR=1900
DGENRE=
TTITLE0=Corn Soup and Fry Bread
TTITLE1=Don't Worry About Me
TTITLE2=Indian Time
TTITLE3=It's Over
TTITLE4=Legacy
TTITLE5=Mother Earth
TTITLE6=Pipeline
TTITLE7=Treat Her Right
TTITLE8=Wild Onions
TTITLE9=Warrior's Last Ride
TTITLE10=Working Man Blues
EXTD=
EXTT0=
EXTT1=
EXTT2=
EXTT3=
EXTT4=
EXTT5=
EXTT6=
EXTT7=
EXTT8=
EXTT9=
EXTT10=
PLAYORDER=
